<mxfile host="app.diagrams.net" modified="2023-11-24T02:46:17.929Z" agent="Mozilla/5.0 (Windows NT 10.0; Win64; x64; rv:109.0) Gecko/20100101 Firefox/119.0" etag="4smAaXNtz_tyPdApbsqA" version="22.1.3" type="google" pages="3">
  <diagram name="Diagrama de componentes" id="mZNEE2rJ8CzhPDQj5g3j">
    <mxGraphModel grid="1" page="1" gridSize="10" guides="1" tooltips="1" connect="1" arrows="1" fold="1" pageScale="1" pageWidth="827" pageHeight="1169" math="0" shadow="0">
      <root>
        <mxCell id="0" />
        <mxCell id="1" parent="0" />
        <mxCell id="X_xkrlFQJ5sx2TmhTXDF-5" style="edgeStyle=orthogonalEdgeStyle;rounded=0;orthogonalLoop=1;jettySize=auto;html=1;exitX=0.5;exitY=1;exitDx=0;exitDy=0;" edge="1" parent="1" source="X_xkrlFQJ5sx2TmhTXDF-3" target="X_xkrlFQJ5sx2TmhTXDF-4">
          <mxGeometry relative="1" as="geometry" />
        </mxCell>
        <mxCell id="X_xkrlFQJ5sx2TmhTXDF-3" value="FrontEnd&lt;br&gt;&lt;br&gt;(React)" style="shape=module;align=left;spacingLeft=20;align=center;verticalAlign=top;whiteSpace=wrap;html=1;" vertex="1" parent="1">
          <mxGeometry x="319" y="365" width="190" height="80" as="geometry" />
        </mxCell>
        <mxCell id="X_xkrlFQJ5sx2TmhTXDF-7" style="edgeStyle=orthogonalEdgeStyle;rounded=0;orthogonalLoop=1;jettySize=auto;html=1;exitX=0.5;exitY=1;exitDx=0;exitDy=0;" edge="1" parent="1" source="X_xkrlFQJ5sx2TmhTXDF-4" target="X_xkrlFQJ5sx2TmhTXDF-6">
          <mxGeometry relative="1" as="geometry" />
        </mxCell>
        <mxCell id="X_xkrlFQJ5sx2TmhTXDF-4" value="&lt;div&gt;&lt;br&gt;&lt;/div&gt;&lt;div&gt;&lt;br&gt;&lt;/div&gt;&lt;div&gt;API Sucursal Banco&lt;br&gt;&lt;/div&gt;" style="shape=module;align=left;spacingLeft=20;align=center;verticalAlign=top;whiteSpace=wrap;html=1;" vertex="1" parent="1">
          <mxGeometry x="319" y="545" width="190" height="80" as="geometry" />
        </mxCell>
        <mxCell id="X_xkrlFQJ5sx2TmhTXDF-6" value="Database&lt;br&gt;MySQL" style="shape=cylinder3;whiteSpace=wrap;html=1;boundedLbl=1;backgroundOutline=1;size=15;" vertex="1" parent="1">
          <mxGeometry x="384" y="725" width="60" height="80" as="geometry" />
        </mxCell>
      </root>
    </mxGraphModel>
  </diagram>
  <diagram id="-P4Mnyqb_cOZvExTDsNc" name="Diagrama de paquetes">
    <mxGraphModel grid="1" page="1" gridSize="10" guides="1" tooltips="1" connect="1" arrows="1" fold="1" pageScale="1" pageWidth="827" pageHeight="1169" math="0" shadow="0">
      <root>
        <mxCell id="0" />
        <mxCell id="1" parent="0" />
        <mxCell id="LLYvimk3Mk7GgNINGPdw-1" value="" style="shape=folder;fontStyle=1;spacingTop=10;tabWidth=40;tabHeight=14;tabPosition=left;html=1;whiteSpace=wrap;" vertex="1" parent="1">
          <mxGeometry x="162" y="172" width="504" height="770" as="geometry" />
        </mxCell>
        <mxCell id="vLg9xV0Jb98Dz_GO41BQ-12" style="edgeStyle=orthogonalEdgeStyle;rounded=0;orthogonalLoop=1;jettySize=auto;html=1;exitX=0.5;exitY=1;exitDx=0;exitDy=0;exitPerimeter=0;entryX=0.498;entryY=0.114;entryDx=0;entryDy=0;entryPerimeter=0;" edge="1" parent="1" source="vLg9xV0Jb98Dz_GO41BQ-1" target="vLg9xV0Jb98Dz_GO41BQ-8">
          <mxGeometry relative="1" as="geometry">
            <mxPoint x="414" y="567" as="targetPoint" />
          </mxGeometry>
        </mxCell>
        <mxCell id="vLg9xV0Jb98Dz_GO41BQ-1" value="" style="shape=folder;fontStyle=1;spacingTop=10;tabWidth=40;tabHeight=14;tabPosition=left;html=1;whiteSpace=wrap;" vertex="1" parent="1">
          <mxGeometry x="286" y="227" width="256" height="220" as="geometry" />
        </mxCell>
        <mxCell id="vLg9xV0Jb98Dz_GO41BQ-2" value="com.banco.sucursal.controller" style="text;align=center;fontStyle=1;verticalAlign=middle;spacingLeft=3;spacingRight=3;strokeColor=none;rotatable=0;points=[[0,0.5],[1,0.5]];portConstraint=eastwest;html=1;" vertex="1" parent="1">
          <mxGeometry x="352" y="247" width="50" height="10" as="geometry" />
        </mxCell>
        <mxCell id="vLg9xV0Jb98Dz_GO41BQ-3" value="" style="shape=folder;fontStyle=1;spacingTop=10;tabWidth=40;tabHeight=14;tabPosition=left;html=1;whiteSpace=wrap;" vertex="1" parent="1">
          <mxGeometry x="309" y="279.5" width="210" height="115" as="geometry" />
        </mxCell>
        <mxCell id="vLg9xV0Jb98Dz_GO41BQ-7" value="com.banco.sucursal.controller.dto" style="text;align=center;fontStyle=1;verticalAlign=middle;spacingLeft=3;spacingRight=3;strokeColor=none;rotatable=0;points=[[0,0.5],[1,0.5]];portConstraint=eastwest;html=1;" vertex="1" parent="1">
          <mxGeometry x="389" y="332" width="50" height="10" as="geometry" />
        </mxCell>
        <mxCell id="vLg9xV0Jb98Dz_GO41BQ-13" style="edgeStyle=orthogonalEdgeStyle;rounded=0;orthogonalLoop=1;jettySize=auto;html=1;exitX=0.5;exitY=1;exitDx=0;exitDy=0;exitPerimeter=0;entryX=0.502;entryY=0.127;entryDx=0;entryDy=0;entryPerimeter=0;" edge="1" parent="1" source="vLg9xV0Jb98Dz_GO41BQ-8" target="vLg9xV0Jb98Dz_GO41BQ-10">
          <mxGeometry relative="1" as="geometry" />
        </mxCell>
        <mxCell id="vLg9xV0Jb98Dz_GO41BQ-8" value="" style="shape=folder;fontStyle=1;spacingTop=10;tabWidth=40;tabHeight=14;tabPosition=left;html=1;whiteSpace=wrap;" vertex="1" parent="1">
          <mxGeometry x="309" y="567" width="210" height="115" as="geometry" />
        </mxCell>
        <mxCell id="vLg9xV0Jb98Dz_GO41BQ-9" value="com.banco.sucursal.logica" style="text;align=center;fontStyle=1;verticalAlign=middle;spacingLeft=3;spacingRight=3;strokeColor=none;rotatable=0;points=[[0,0.5],[1,0.5]];portConstraint=eastwest;html=1;" vertex="1" parent="1">
          <mxGeometry x="389" y="619.5" width="50" height="10" as="geometry" />
        </mxCell>
        <mxCell id="vLg9xV0Jb98Dz_GO41BQ-15" style="edgeStyle=orthogonalEdgeStyle;rounded=0;orthogonalLoop=1;jettySize=auto;html=1;exitX=0.5;exitY=1;exitDx=0;exitDy=0;exitPerimeter=0;entryX=0.5;entryY=0;entryDx=0;entryDy=0;entryPerimeter=0;" edge="1" parent="1" source="vLg9xV0Jb98Dz_GO41BQ-10" target="vLg9xV0Jb98Dz_GO41BQ-14">
          <mxGeometry relative="1" as="geometry" />
        </mxCell>
        <mxCell id="vLg9xV0Jb98Dz_GO41BQ-10" value="" style="shape=folder;fontStyle=1;spacingTop=10;tabWidth=40;tabHeight=14;tabPosition=left;html=1;whiteSpace=wrap;" vertex="1" parent="1">
          <mxGeometry x="309" y="807" width="210" height="115" as="geometry" />
        </mxCell>
        <mxCell id="vLg9xV0Jb98Dz_GO41BQ-11" value="com.banco.sucursal.persistencia" style="text;align=center;fontStyle=1;verticalAlign=middle;spacingLeft=3;spacingRight=3;strokeColor=none;rotatable=0;points=[[0,0.5],[1,0.5]];portConstraint=eastwest;html=1;" vertex="1" parent="1">
          <mxGeometry x="389" y="859.5" width="50" height="10" as="geometry" />
        </mxCell>
        <mxCell id="vLg9xV0Jb98Dz_GO41BQ-14" value="" style="shape=cylinder3;whiteSpace=wrap;html=1;boundedLbl=1;backgroundOutline=1;size=15;" vertex="1" parent="1">
          <mxGeometry x="384" y="1002" width="60" height="80" as="geometry" />
        </mxCell>
        <mxCell id="vLg9xV0Jb98Dz_GO41BQ-16" value="Database&lt;br&gt;MySQL" style="text;align=center;fontStyle=1;verticalAlign=middle;spacingLeft=3;spacingRight=3;strokeColor=none;rotatable=0;points=[[0,0.5],[1,0.5]];portConstraint=eastwest;html=1;" vertex="1" parent="1">
          <mxGeometry x="389" y="1097" width="50" height="10" as="geometry" />
        </mxCell>
        <mxCell id="vLg9xV0Jb98Dz_GO41BQ-19" style="edgeStyle=orthogonalEdgeStyle;rounded=0;orthogonalLoop=1;jettySize=auto;html=1;entryX=0.5;entryY=0.048;entryDx=0;entryDy=0;entryPerimeter=0;" edge="1" parent="1" source="vLg9xV0Jb98Dz_GO41BQ-17" target="vLg9xV0Jb98Dz_GO41BQ-1">
          <mxGeometry relative="1" as="geometry" />
        </mxCell>
        <mxCell id="vLg9xV0Jb98Dz_GO41BQ-17" value="Actor" style="shape=umlActor;verticalLabelPosition=bottom;verticalAlign=top;html=1;outlineConnect=0;" vertex="1" parent="1">
          <mxGeometry x="399" y="62" width="30" height="60" as="geometry" />
        </mxCell>
        <mxCell id="LLYvimk3Mk7GgNINGPdw-2" value="com.banco.sucursal" style="text;align=center;fontStyle=1;verticalAlign=middle;spacingLeft=3;spacingRight=3;strokeColor=none;rotatable=0;points=[[0,0.5],[1,0.5]];portConstraint=eastwest;html=1;" vertex="1" parent="1">
          <mxGeometry x="200" y="192" width="50" height="10" as="geometry" />
        </mxCell>
      </root>
    </mxGraphModel>
  </diagram>
  <diagram id="UzfrSCys1LESM9C1CgfK" name="Diagrama de entidad relaciÃ³n">
    <mxGraphModel grid="1" page="1" gridSize="10" guides="1" tooltips="1" connect="1" arrows="1" fold="1" pageScale="1" pageWidth="827" pageHeight="1169" math="0" shadow="0">
      <root>
        <mxCell id="0" />
        <mxCell id="1" parent="0" />
        <mxCell id="3LUQtXLlXzStNWItSkJJ-25" style="edgeStyle=orthogonalEdgeStyle;rounded=0;orthogonalLoop=1;jettySize=auto;html=1;exitX=0.644;exitY=-0.001;exitDx=0;exitDy=0;entryX=0;entryY=0.5;entryDx=0;entryDy=0;exitPerimeter=0;endSize=15;startSize=15;startArrow=ERmandOne;startFill=0;endArrow=ERmandOne;endFill=0;" edge="1" parent="1" source="U0WaesolCWwt9AhXqc-9-4" target="3LUQtXLlXzStNWItSkJJ-17">
          <mxGeometry relative="1" as="geometry">
            <mxPoint x="459" y="280" as="targetPoint" />
          </mxGeometry>
        </mxCell>
        <mxCell id="3LUQtXLlXzStNWItSkJJ-33" style="edgeStyle=orthogonalEdgeStyle;rounded=0;orthogonalLoop=1;jettySize=auto;html=1;entryX=0.996;entryY=0.32;entryDx=0;entryDy=0;entryPerimeter=0;exitX=0.211;exitY=0.002;exitDx=0;exitDy=0;exitPerimeter=0;startArrow=ERmandOne;startFill=0;endSize=15;startSize=15;endArrow=ERmandOne;endFill=0;" edge="1" parent="1" source="U0WaesolCWwt9AhXqc-9-4" target="3LUQtXLlXzStNWItSkJJ-26">
          <mxGeometry relative="1" as="geometry">
            <mxPoint x="413" y="300" as="targetPoint" />
          </mxGeometry>
        </mxCell>
        <mxCell id="U0WaesolCWwt9AhXqc-9-4" value="&lt;div style=&quot;box-sizing:border-box;width:100%;background:#e4e4e4;padding:2px;&quot;&gt;Transaccion&lt;br&gt;&lt;/div&gt;&lt;table style=&quot;width:100%;font-size:1em;&quot; cellpadding=&quot;2&quot; cellspacing=&quot;0&quot;&gt;&lt;tbody&gt;&lt;tr&gt;&lt;td&gt;&lt;br&gt;&lt;/td&gt;&lt;td&gt;&lt;br&gt;&lt;/td&gt;&lt;/tr&gt;&lt;tr&gt;&lt;td&gt;&lt;br&gt;&lt;br&gt;&lt;/td&gt;&lt;td&gt;&lt;br&gt;&lt;/td&gt;&lt;/tr&gt;&lt;tr&gt;&lt;td&gt;&lt;br&gt;&lt;/td&gt;&lt;td&gt;&lt;br&gt;&lt;br&gt;&lt;br&gt;&lt;/td&gt;&lt;/tr&gt;&lt;/tbody&gt;&lt;/table&gt;" style="verticalAlign=top;align=left;overflow=fill;html=1;whiteSpace=wrap;" vertex="1" parent="1">
          <mxGeometry x="321" y="470" width="184" height="230" as="geometry" />
        </mxCell>
        <mxCell id="U0WaesolCWwt9AhXqc-9-5" value="PK" style="text;align=left;fontStyle=1;verticalAlign=middle;spacingLeft=3;spacingRight=3;strokeColor=none;rotatable=0;points=[[0,0.5],[1,0.5]];portConstraint=eastwest;html=1;" vertex="1" parent="1">
          <mxGeometry x="325" y="490" width="40" height="26" as="geometry" />
        </mxCell>
        <mxCell id="U0WaesolCWwt9AhXqc-9-6" value="FK1" style="text;align=left;fontStyle=1;verticalAlign=middle;spacingLeft=3;spacingRight=3;strokeColor=none;rotatable=0;points=[[0,0.5],[1,0.5]];portConstraint=eastwest;html=1;" vertex="1" parent="1">
          <mxGeometry x="325" y="516" width="40" height="26" as="geometry" />
        </mxCell>
        <mxCell id="U0WaesolCWwt9AhXqc-9-7" value="FK2" style="text;align=left;fontStyle=1;verticalAlign=middle;spacingLeft=3;spacingRight=3;strokeColor=none;rotatable=0;points=[[0,0.5],[1,0.5]];portConstraint=eastwest;html=1;" vertex="1" parent="1">
          <mxGeometry x="325" y="542" width="40" height="26" as="geometry" />
        </mxCell>
        <mxCell id="U0WaesolCWwt9AhXqc-9-8" value="FK3" style="text;align=left;fontStyle=1;verticalAlign=middle;spacingLeft=3;spacingRight=3;strokeColor=none;rotatable=0;points=[[0,0.5],[1,0.5]];portConstraint=eastwest;html=1;" vertex="1" parent="1">
          <mxGeometry x="325" y="568" width="40" height="26" as="geometry" />
        </mxCell>
        <mxCell id="U0WaesolCWwt9AhXqc-9-9" value="FK4" style="text;align=left;fontStyle=1;verticalAlign=middle;spacingLeft=3;spacingRight=3;strokeColor=none;rotatable=0;points=[[0,0.5],[1,0.5]];portConstraint=eastwest;html=1;" vertex="1" parent="1">
          <mxGeometry x="325" y="594" width="40" height="26" as="geometry" />
        </mxCell>
        <mxCell id="U0WaesolCWwt9AhXqc-9-10" value="id_transaccion" style="text;align=left;fontStyle=1;verticalAlign=middle;spacingLeft=3;spacingRight=3;strokeColor=none;rotatable=0;points=[[0,0.5],[1,0.5]];portConstraint=eastwest;html=1;" vertex="1" parent="1">
          <mxGeometry x="365" y="490" width="130" height="26" as="geometry" />
        </mxCell>
        <mxCell id="U0WaesolCWwt9AhXqc-9-11" value="id_cliente_origen" style="text;align=left;fontStyle=1;verticalAlign=middle;spacingLeft=3;spacingRight=3;strokeColor=none;rotatable=0;points=[[0,0.5],[1,0.5]];portConstraint=eastwest;html=1;" vertex="1" parent="1">
          <mxGeometry x="365" y="516" width="130" height="26" as="geometry" />
        </mxCell>
        <mxCell id="U0WaesolCWwt9AhXqc-9-12" value="id_cliente_destino" style="text;align=left;fontStyle=1;verticalAlign=middle;spacingLeft=3;spacingRight=3;strokeColor=none;rotatable=0;points=[[0,0.5],[1,0.5]];portConstraint=eastwest;html=1;" vertex="1" parent="1">
          <mxGeometry x="365" y="542" width="130" height="26" as="geometry" />
        </mxCell>
        <mxCell id="U0WaesolCWwt9AhXqc-9-13" value="id_producto_origen" style="text;align=left;fontStyle=1;verticalAlign=middle;spacingLeft=3;spacingRight=3;strokeColor=none;rotatable=0;points=[[0,0.5],[1,0.5]];portConstraint=eastwest;html=1;" vertex="1" parent="1">
          <mxGeometry x="365" y="568" width="130" height="26" as="geometry" />
        </mxCell>
        <mxCell id="U0WaesolCWwt9AhXqc-9-14" value="id_producto_destino" style="text;align=left;fontStyle=1;verticalAlign=middle;spacingLeft=3;spacingRight=3;strokeColor=none;rotatable=0;points=[[0,0.5],[1,0.5]];portConstraint=eastwest;html=1;" vertex="1" parent="1">
          <mxGeometry x="365" y="594" width="130" height="26" as="geometry" />
        </mxCell>
        <mxCell id="U0WaesolCWwt9AhXqc-9-15" value="hora_transaccion" style="text;align=left;fontStyle=1;verticalAlign=middle;spacingLeft=3;spacingRight=3;strokeColor=none;rotatable=0;points=[[0,0.5],[1,0.5]];portConstraint=eastwest;html=1;" vertex="1" parent="1">
          <mxGeometry x="365" y="620" width="130" height="26" as="geometry" />
        </mxCell>
        <mxCell id="U0WaesolCWwt9AhXqc-9-16" value="tipo_transaccion" style="text;align=left;fontStyle=1;verticalAlign=middle;spacingLeft=3;spacingRight=3;strokeColor=none;rotatable=0;points=[[0,0.5],[1,0.5]];portConstraint=eastwest;html=1;" vertex="1" parent="1">
          <mxGeometry x="365" y="646" width="130" height="26" as="geometry" />
        </mxCell>
        <mxCell id="U0WaesolCWwt9AhXqc-9-18" value="monto" style="text;align=left;fontStyle=1;verticalAlign=middle;spacingLeft=3;spacingRight=3;strokeColor=none;rotatable=0;points=[[0,0.5],[1,0.5]];portConstraint=eastwest;html=1;" vertex="1" parent="1">
          <mxGeometry x="365" y="672" width="130" height="26" as="geometry" />
        </mxCell>
        <mxCell id="U0WaesolCWwt9AhXqc-9-50" style="edgeStyle=orthogonalEdgeStyle;rounded=0;orthogonalLoop=1;jettySize=auto;html=1;exitX=1;exitY=0.5;exitDx=0;exitDy=0;entryX=0;entryY=0.5;entryDx=0;entryDy=0;endArrow=ERoneToMany;endFill=0;startArrow=ERmandOne;startFill=0;endSize=15;startSize=15;" edge="1" parent="1" source="U0WaesolCWwt9AhXqc-9-19" target="U0WaesolCWwt9AhXqc-9-33">
          <mxGeometry relative="1" as="geometry" />
        </mxCell>
        <mxCell id="U0WaesolCWwt9AhXqc-9-19" value="&lt;div style=&quot;box-sizing:border-box;width:100%;background:#e4e4e4;padding:2px;&quot;&gt;Cliente&lt;br&gt;&lt;/div&gt;&lt;table style=&quot;width:100%;font-size:1em;&quot; cellpadding=&quot;2&quot; cellspacing=&quot;0&quot;&gt;&lt;tbody&gt;&lt;tr&gt;&lt;td&gt;&lt;br&gt;&lt;/td&gt;&lt;td&gt;&lt;br&gt;&lt;/td&gt;&lt;/tr&gt;&lt;tr&gt;&lt;td&gt;&lt;br&gt;&lt;br&gt;&lt;/td&gt;&lt;td&gt;&lt;br&gt;&lt;/td&gt;&lt;/tr&gt;&lt;tr&gt;&lt;td&gt;&lt;br&gt;&lt;/td&gt;&lt;td&gt;&lt;br&gt;&lt;br&gt;&lt;br&gt;&lt;/td&gt;&lt;/tr&gt;&lt;/tbody&gt;&lt;/table&gt;" style="verticalAlign=top;align=left;overflow=fill;html=1;whiteSpace=wrap;" vertex="1" parent="1">
          <mxGeometry x="80" y="840" width="160" height="160" as="geometry" />
        </mxCell>
        <mxCell id="U0WaesolCWwt9AhXqc-9-20" value="PK" style="text;align=left;fontStyle=1;verticalAlign=middle;spacingLeft=3;spacingRight=3;strokeColor=none;rotatable=0;points=[[0,0.5],[1,0.5]];portConstraint=eastwest;html=1;" vertex="1" parent="1">
          <mxGeometry x="80" y="860" width="40" height="26" as="geometry" />
        </mxCell>
        <mxCell id="U0WaesolCWwt9AhXqc-9-25" value="id_cliente" style="text;align=left;fontStyle=1;verticalAlign=middle;spacingLeft=3;spacingRight=3;strokeColor=none;rotatable=0;points=[[0,0.5],[1,0.5]];portConstraint=eastwest;html=1;" vertex="1" parent="1">
          <mxGeometry x="120" y="860" width="130" height="26" as="geometry" />
        </mxCell>
        <mxCell id="U0WaesolCWwt9AhXqc-9-26" value="activo" style="text;align=left;fontStyle=1;verticalAlign=middle;spacingLeft=3;spacingRight=3;strokeColor=none;rotatable=0;points=[[0,0.5],[1,0.5]];portConstraint=eastwest;html=1;" vertex="1" parent="1">
          <mxGeometry x="120" y="886" width="130" height="26" as="geometry" />
        </mxCell>
        <mxCell id="U0WaesolCWwt9AhXqc-9-27" value="nombres" style="text;align=left;fontStyle=1;verticalAlign=middle;spacingLeft=3;spacingRight=3;strokeColor=none;rotatable=0;points=[[0,0.5],[1,0.5]];portConstraint=eastwest;html=1;" vertex="1" parent="1">
          <mxGeometry x="120" y="912" width="130" height="26" as="geometry" />
        </mxCell>
        <mxCell id="U0WaesolCWwt9AhXqc-9-28" value="apellidos" style="text;align=left;fontStyle=1;verticalAlign=middle;spacingLeft=3;spacingRight=3;strokeColor=none;rotatable=0;points=[[0,0.5],[1,0.5]];portConstraint=eastwest;html=1;" vertex="1" parent="1">
          <mxGeometry x="120" y="938" width="130" height="26" as="geometry" />
        </mxCell>
        <mxCell id="U0WaesolCWwt9AhXqc-9-29" value="edad" style="text;align=left;fontStyle=1;verticalAlign=middle;spacingLeft=3;spacingRight=3;strokeColor=none;rotatable=0;points=[[0,0.5],[1,0.5]];portConstraint=eastwest;html=1;" vertex="1" parent="1">
          <mxGeometry x="120" y="964" width="130" height="26" as="geometry" />
        </mxCell>
        <mxCell id="U0WaesolCWwt9AhXqc-9-33" value="&lt;div style=&quot;box-sizing:border-box;width:100%;background:#e4e4e4;padding:2px;&quot;&gt;Producto&lt;br&gt;&lt;/div&gt;&lt;table style=&quot;width:100%;font-size:1em;&quot; cellpadding=&quot;2&quot; cellspacing=&quot;0&quot;&gt;&lt;tbody&gt;&lt;tr&gt;&lt;td&gt;&lt;br&gt;&lt;/td&gt;&lt;td&gt;&lt;br&gt;&lt;/td&gt;&lt;/tr&gt;&lt;tr&gt;&lt;td&gt;&lt;br&gt;&lt;br&gt;&lt;/td&gt;&lt;td&gt;&lt;br&gt;&lt;/td&gt;&lt;/tr&gt;&lt;tr&gt;&lt;td&gt;&lt;br&gt;&lt;/td&gt;&lt;td&gt;&lt;br&gt;&lt;br&gt;&lt;br&gt;&lt;/td&gt;&lt;/tr&gt;&lt;/tbody&gt;&lt;/table&gt;" style="verticalAlign=top;align=left;overflow=fill;html=1;whiteSpace=wrap;" vertex="1" parent="1">
          <mxGeometry x="560" y="840" width="200" height="160" as="geometry" />
        </mxCell>
        <mxCell id="U0WaesolCWwt9AhXqc-9-34" value="PK" style="text;align=left;fontStyle=1;verticalAlign=middle;spacingLeft=3;spacingRight=3;strokeColor=none;rotatable=0;points=[[0,0.5],[1,0.5]];portConstraint=eastwest;html=1;" vertex="1" parent="1">
          <mxGeometry x="560" y="863" width="40" height="26" as="geometry" />
        </mxCell>
        <mxCell id="U0WaesolCWwt9AhXqc-9-35" value="FK1" style="text;align=left;fontStyle=1;verticalAlign=middle;spacingLeft=3;spacingRight=3;strokeColor=none;rotatable=0;points=[[0,0.5],[1,0.5]];portConstraint=eastwest;html=1;" vertex="1" parent="1">
          <mxGeometry x="560" y="889" width="40" height="26" as="geometry" />
        </mxCell>
        <mxCell id="U0WaesolCWwt9AhXqc-9-39" value="id_producto" style="text;align=left;fontStyle=1;verticalAlign=middle;spacingLeft=3;spacingRight=3;strokeColor=none;rotatable=0;points=[[0,0.5],[1,0.5]];portConstraint=eastwest;html=1;" vertex="1" parent="1">
          <mxGeometry x="600" y="863" width="130" height="26" as="geometry" />
        </mxCell>
        <mxCell id="U0WaesolCWwt9AhXqc-9-40" value="id_cliente" style="text;align=left;fontStyle=1;verticalAlign=middle;spacingLeft=3;spacingRight=3;strokeColor=none;rotatable=0;points=[[0,0.5],[1,0.5]];portConstraint=eastwest;html=1;" vertex="1" parent="1">
          <mxGeometry x="600" y="889" width="130" height="26" as="geometry" />
        </mxCell>
        <mxCell id="U0WaesolCWwt9AhXqc-9-41" value="tipo_producto" style="text;align=left;fontStyle=1;verticalAlign=middle;spacingLeft=3;spacingRight=3;strokeColor=none;rotatable=0;points=[[0,0.5],[1,0.5]];portConstraint=eastwest;html=1;" vertex="1" parent="1">
          <mxGeometry x="600" y="915" width="130" height="26" as="geometry" />
        </mxCell>
        <mxCell id="U0WaesolCWwt9AhXqc-9-42" value="saldo_producto" style="text;align=left;fontStyle=1;verticalAlign=middle;spacingLeft=3;spacingRight=3;strokeColor=none;rotatable=0;points=[[0,0.5],[1,0.5]];portConstraint=eastwest;html=1;" vertex="1" parent="1">
          <mxGeometry x="600" y="941" width="130" height="26" as="geometry" />
        </mxCell>
        <mxCell id="U0WaesolCWwt9AhXqc-9-43" value="activo" style="text;align=left;fontStyle=1;verticalAlign=middle;spacingLeft=3;spacingRight=3;strokeColor=none;rotatable=0;points=[[0,0.5],[1,0.5]];portConstraint=eastwest;html=1;" vertex="1" parent="1">
          <mxGeometry x="600" y="967" width="130" height="26" as="geometry" />
        </mxCell>
        <mxCell id="3LUQtXLlXzStNWItSkJJ-16" value="&lt;div style=&quot;box-sizing:border-box;width:100%;background:#e4e4e4;padding:2px;&quot;&gt;Transaccion_producto&lt;br&gt;&lt;/div&gt;&lt;table style=&quot;width:100%;font-size:1em;&quot; cellpadding=&quot;2&quot; cellspacing=&quot;0&quot;&gt;&lt;tbody&gt;&lt;tr&gt;&lt;td&gt;&lt;br&gt;&lt;/td&gt;&lt;td&gt;&lt;br&gt;&lt;/td&gt;&lt;/tr&gt;&lt;tr&gt;&lt;td&gt;&lt;br&gt;&lt;br&gt;&lt;/td&gt;&lt;td&gt;&lt;br&gt;&lt;/td&gt;&lt;/tr&gt;&lt;tr&gt;&lt;td&gt;&lt;br&gt;&lt;/td&gt;&lt;td&gt;&lt;br&gt;&lt;br&gt;&lt;br&gt;&lt;/td&gt;&lt;/tr&gt;&lt;/tbody&gt;&lt;/table&gt;" style="verticalAlign=top;align=left;overflow=fill;html=1;whiteSpace=wrap;" vertex="1" parent="1">
          <mxGeometry x="560" y="240" width="200" height="120" as="geometry" />
        </mxCell>
        <mxCell id="3LUQtXLlXzStNWItSkJJ-17" value="PK" style="text;align=left;fontStyle=1;verticalAlign=middle;spacingLeft=3;spacingRight=3;strokeColor=none;rotatable=0;points=[[0,0.5],[1,0.5]];portConstraint=eastwest;html=1;" vertex="1" parent="1">
          <mxGeometry x="560" y="266" width="40" height="26" as="geometry" />
        </mxCell>
        <mxCell id="3LUQtXLlXzStNWItSkJJ-18" value="FK1" style="text;align=left;fontStyle=1;verticalAlign=middle;spacingLeft=3;spacingRight=3;strokeColor=none;rotatable=0;points=[[0,0.5],[1,0.5]];portConstraint=eastwest;html=1;" vertex="1" parent="1">
          <mxGeometry x="560" y="292" width="40" height="26" as="geometry" />
        </mxCell>
        <mxCell id="3LUQtXLlXzStNWItSkJJ-19" value="id_transaccion_producto" style="text;align=left;fontStyle=1;verticalAlign=middle;spacingLeft=3;spacingRight=3;strokeColor=none;rotatable=0;points=[[0,0.5],[1,0.5]];portConstraint=eastwest;html=1;" vertex="1" parent="1">
          <mxGeometry x="600" y="266" width="130" height="26" as="geometry" />
        </mxCell>
        <mxCell id="3LUQtXLlXzStNWItSkJJ-20" value="id_transaccion" style="text;align=left;fontStyle=1;verticalAlign=middle;spacingLeft=3;spacingRight=3;strokeColor=none;rotatable=0;points=[[0,0.5],[1,0.5]];portConstraint=eastwest;html=1;" vertex="1" parent="1">
          <mxGeometry x="600" y="292" width="130" height="26" as="geometry" />
        </mxCell>
        <mxCell id="3LUQtXLlXzStNWItSkJJ-21" value="id_producto" style="text;align=left;fontStyle=1;verticalAlign=middle;spacingLeft=3;spacingRight=3;strokeColor=none;rotatable=0;points=[[0,0.5],[1,0.5]];portConstraint=eastwest;html=1;" vertex="1" parent="1">
          <mxGeometry x="600" y="318" width="130" height="26" as="geometry" />
        </mxCell>
        <mxCell id="3LUQtXLlXzStNWItSkJJ-24" value="FK2" style="text;align=left;fontStyle=1;verticalAlign=middle;spacingLeft=3;spacingRight=3;strokeColor=none;rotatable=0;points=[[0,0.5],[1,0.5]];portConstraint=eastwest;html=1;" vertex="1" parent="1">
          <mxGeometry x="560" y="318" width="40" height="26" as="geometry" />
        </mxCell>
        <mxCell id="3LUQtXLlXzStNWItSkJJ-35" style="edgeStyle=orthogonalEdgeStyle;rounded=0;orthogonalLoop=1;jettySize=auto;html=1;exitX=0.399;exitY=1.002;exitDx=0;exitDy=0;entryX=0.5;entryY=0;entryDx=0;entryDy=0;exitPerimeter=0;endSize=15;startSize=15;startArrow=ERoneToMany;startFill=0;endArrow=ERmandOne;endFill=0;" edge="1" parent="1" source="3LUQtXLlXzStNWItSkJJ-26" target="U0WaesolCWwt9AhXqc-9-19">
          <mxGeometry relative="1" as="geometry" />
        </mxCell>
        <mxCell id="3LUQtXLlXzStNWItSkJJ-26" value="&lt;div style=&quot;box-sizing:border-box;width:100%;background:#e4e4e4;padding:2px;&quot;&gt;Transaccion_cliente&lt;br&gt;&lt;/div&gt;&lt;table style=&quot;width:100%;font-size:1em;&quot; cellpadding=&quot;2&quot; cellspacing=&quot;0&quot;&gt;&lt;tbody&gt;&lt;tr&gt;&lt;td&gt;&lt;br&gt;&lt;/td&gt;&lt;td&gt;&lt;br&gt;&lt;/td&gt;&lt;/tr&gt;&lt;tr&gt;&lt;td&gt;&lt;br&gt;&lt;br&gt;&lt;/td&gt;&lt;td&gt;&lt;br&gt;&lt;/td&gt;&lt;/tr&gt;&lt;tr&gt;&lt;td&gt;&lt;br&gt;&lt;/td&gt;&lt;td&gt;&lt;br&gt;&lt;br&gt;&lt;br&gt;&lt;/td&gt;&lt;/tr&gt;&lt;/tbody&gt;&lt;/table&gt;" style="verticalAlign=top;align=left;overflow=fill;html=1;whiteSpace=wrap;" vertex="1" parent="1">
          <mxGeometry x="80" y="240" width="200" height="120" as="geometry" />
        </mxCell>
        <mxCell id="3LUQtXLlXzStNWItSkJJ-27" value="PK" style="text;align=left;fontStyle=1;verticalAlign=middle;spacingLeft=3;spacingRight=3;strokeColor=none;rotatable=0;points=[[0,0.5],[1,0.5]];portConstraint=eastwest;html=1;" vertex="1" parent="1">
          <mxGeometry x="80" y="266" width="40" height="26" as="geometry" />
        </mxCell>
        <mxCell id="3LUQtXLlXzStNWItSkJJ-28" value="FK1" style="text;align=left;fontStyle=1;verticalAlign=middle;spacingLeft=3;spacingRight=3;strokeColor=none;rotatable=0;points=[[0,0.5],[1,0.5]];portConstraint=eastwest;html=1;" vertex="1" parent="1">
          <mxGeometry x="80" y="292" width="40" height="26" as="geometry" />
        </mxCell>
        <mxCell id="3LUQtXLlXzStNWItSkJJ-29" value="id_transaccion_cliente" style="text;align=left;fontStyle=1;verticalAlign=middle;spacingLeft=3;spacingRight=3;strokeColor=none;rotatable=0;points=[[0,0.5],[1,0.5]];portConstraint=eastwest;html=1;" vertex="1" parent="1">
          <mxGeometry x="120" y="266" width="130" height="26" as="geometry" />
        </mxCell>
        <mxCell id="3LUQtXLlXzStNWItSkJJ-30" value="id_transaccion" style="text;align=left;fontStyle=1;verticalAlign=middle;spacingLeft=3;spacingRight=3;strokeColor=none;rotatable=0;points=[[0,0.5],[1,0.5]];portConstraint=eastwest;html=1;" vertex="1" parent="1">
          <mxGeometry x="120" y="292" width="130" height="26" as="geometry" />
        </mxCell>
        <mxCell id="3LUQtXLlXzStNWItSkJJ-31" value="id_cliente" style="text;align=left;fontStyle=1;verticalAlign=middle;spacingLeft=3;spacingRight=3;strokeColor=none;rotatable=0;points=[[0,0.5],[1,0.5]];portConstraint=eastwest;html=1;" vertex="1" parent="1">
          <mxGeometry x="120" y="318" width="130" height="26" as="geometry" />
        </mxCell>
        <mxCell id="3LUQtXLlXzStNWItSkJJ-32" value="FK2" style="text;align=left;fontStyle=1;verticalAlign=middle;spacingLeft=3;spacingRight=3;strokeColor=none;rotatable=0;points=[[0,0.5],[1,0.5]];portConstraint=eastwest;html=1;" vertex="1" parent="1">
          <mxGeometry x="80" y="318" width="40" height="26" as="geometry" />
        </mxCell>
        <mxCell id="3LUQtXLlXzStNWItSkJJ-36" style="edgeStyle=orthogonalEdgeStyle;rounded=0;orthogonalLoop=1;jettySize=auto;html=1;exitX=0.6;exitY=0.999;exitDx=0;exitDy=0;entryX=0.601;entryY=-0.001;entryDx=0;entryDy=0;entryPerimeter=0;exitPerimeter=0;endSize=15;startSize=15;startArrow=ERoneToMany;startFill=0;endArrow=ERmandOne;endFill=0;" edge="1" parent="1" source="3LUQtXLlXzStNWItSkJJ-16" target="U0WaesolCWwt9AhXqc-9-33">
          <mxGeometry relative="1" as="geometry" />
        </mxCell>
      </root>
    </mxGraphModel>
  </diagram>
</mxfile>
